<svg width="111" height="111" viewBox="0 0 111 111" fill="none" xmlns="http://www.w3.org/2000/svg">
<path d="M30.0625 37C33.894 37 37 33.894 37 30.0625C37 26.231 33.894 23.125 30.0625 23.125C26.231 23.125 23.125 26.231 23.125 30.0625C23.125 33.894 26.231 37 30.0625 37Z" fill="white"/>
<path d="M23.125 46.25C23.125 43.6957 25.1957 41.625 27.75 41.625H32.375C34.9293 41.625 37 43.6957 37 46.25V83.25C37 85.8044 34.9293 87.875 32.375 87.875H27.75C25.1957 87.875 23.125 85.8044 23.125 83.25V46.25Z" fill="white"/>
<path d="M50.875 87.875H55.5C58.0544 87.875 60.125 85.8044 60.125 83.25V62.4375C60.125 55.5 74 50.875 74 60.125V83.2518C74 85.8062 76.0706 87.875 78.625 87.875H83.25C85.8044 87.875 87.875 85.8044 87.875 83.25V55.5C87.875 46.25 80.9375 41.625 71.6875 41.625C62.4375 41.625 60.125 48.5625 60.125 48.5625V46.25C60.125 43.6957 58.0544 41.625 55.5 41.625H50.875C48.3206 41.625 46.25 43.6957 46.25 46.25V83.25C46.25 85.8044 48.3206 87.875 50.875 87.875Z" fill="white"/>
<path fill-rule="evenodd" clip-rule="evenodd" d="M92.5 4.625C100.163 4.625 106.375 10.8371 106.375 18.5V92.5C106.375 100.163 100.163 106.375 92.5 106.375H18.5C10.8371 106.375 4.625 100.163 4.625 92.5V18.5C4.625 10.8371 10.8371 4.625 18.5 4.625H92.5ZM92.5 13.875C95.0544 13.875 97.125 15.9457 97.125 18.5V92.5C97.125 95.0544 95.0544 97.125 92.5 97.125H18.5C15.9457 97.125 13.875 95.0544 13.875 92.5V18.5C13.875 15.9457 15.9457 13.875 18.5 13.875H92.5Z" fill="white"/>
</svg>
