<svg width="95" height="95" viewBox="0 0 95 95" fill="none" xmlns="http://www.w3.org/2000/svg">
<path d="M0 95L6.73515 70.6282C2.59678 63.4785 0.423524 55.3698 0.434164 47.1181C0.386258 21.1161 21.5982 0 47.6678 0C60.3206 0 72.2008 4.88328 81.146 13.7912C85.5554 18.1576 89.0501 23.3518 91.4282 29.0726C93.8064 34.7934 95.0203 40.9269 94.9997 47.1181C94.9997 73.0702 73.7878 94.1863 47.7155 94.1863C39.7795 94.1863 32.035 92.2217 25.1081 88.4412L0 95ZM26.2161 79.9658L27.6595 80.8269C33.7181 84.3961 40.6279 86.2809 47.6678 86.2856C69.3135 86.2856 86.9678 68.7144 86.9678 47.1632C86.9678 36.7259 82.88 26.8638 75.4707 19.4912C71.8276 15.8438 67.4951 12.9502 62.7235 10.9773C57.9515 9.00434 52.8345 7.99102 47.6678 7.99572C25.9736 7.99853 8.32522 25.57 8.32522 47.121C8.32522 54.4939 10.3945 61.7262 14.3386 67.9511L15.252 69.4355L11.26 83.8945L26.2161 79.9658Z" fill="white"/>
<path fill-rule="evenodd" clip-rule="evenodd" d="M38.2033 30.2643C37.5185 28.5817 36.7579 28.5408 36.111 28.5408C35.5399 28.5 34.9287 28.5 34.2819 28.5C33.6751 28.5 32.6468 28.7452 31.7724 29.7715C30.8957 30.7954 28.5 33.2159 28.5 38.177C28.5 43.1406 31.8482 47.9381 32.3055 48.5943C32.7605 49.2505 38.7744 59.747 48.2902 63.8091C56.2045 67.1718 57.8042 66.5156 59.5171 66.3089C61.2281 66.1047 65.0359 63.8908 65.8344 61.5114C66.5951 59.1751 66.5951 57.1247 66.3675 56.7135C66.1398 56.305 65.4908 56.0573 64.5787 55.5239C63.6262 55.0333 59.0599 52.5721 58.1855 52.243C57.3088 51.9159 56.6999 51.7524 56.0909 52.7356C55.4819 53.762 53.6928 56.0166 53.1242 56.6728C52.5889 57.329 52.0199 57.4107 51.1055 56.9181C50.1553 56.4275 47.1482 55.3604 43.5703 51.9159C40.7908 49.248 38.9261 45.9285 38.355 44.9456C37.8241 43.9192 38.2792 43.3855 38.7744 42.8928C39.1937 42.4433 39.7269 41.7054 40.1841 41.1309C40.6391 40.5541 40.7908 40.1046 41.1344 39.4484C41.4379 38.7923 41.2862 38.177 41.0585 37.6866C40.829 37.2347 39.042 32.2737 38.2033 30.2643Z" fill="white"/>
</svg>
