<svg width="100" height="98" viewBox="0 0 100 98" fill="none" xmlns="http://www.w3.org/2000/svg">
<path fill-rule="evenodd" clip-rule="evenodd" d="M50 2.00001C38.6041 1.99413 27.5783 6.06215 18.8968 13.4756C10.2154 20.8891 4.44525 31.1639 2.61969 42.4602C0.794126 53.7564 3.03234 65.3364 8.93356 75.1265C14.8348 84.9166 24.0136 92.2776 34.8264 95.8912C37.2363 96.3394 38.1066 94.8604 38.1066 93.6503C38.1066 92.4403 38.1066 89.4824 38.1066 85.4713C24.7182 88.3844 21.9512 79.0177 21.9512 79.0177C21.0656 76.054 19.1389 73.5139 16.5289 71.8694C12.1777 68.8891 16.8636 68.9339 16.8636 68.9339C18.3835 69.1475 19.8349 69.7067 21.1071 70.5687C22.3793 71.4308 23.4388 72.5731 24.2049 73.9085C28.4892 81.2809 35.362 79.1521 38.1735 77.9197C38.3955 75.4717 39.4794 73.1835 41.2306 71.466C30.5644 70.256 19.3628 66.1328 19.3628 47.6683C19.2921 42.8782 21.0669 38.2459 24.3165 34.7387C22.8401 30.5852 23.0078 26.0211 24.7851 21.9883C24.7851 21.9883 28.8016 20.6886 37.9727 26.9181C45.8327 24.7669 54.1227 24.7669 61.9826 26.9181C71.1537 20.6886 75.1702 21.9883 75.1702 21.9883C76.934 26.0242 77.1016 30.5831 75.6388 34.7387C78.8823 38.2481 80.6493 42.8809 80.5702 47.6683C80.5702 66.1776 69.4132 70.2336 58.6801 71.4436C59.8318 72.6154 60.7188 74.0224 61.281 75.5691C61.8431 77.1157 62.0672 78.7657 61.938 80.407C61.938 86.8382 61.938 92.0369 61.938 93.6279C61.938 95.2189 62.8082 96.4066 65.2405 95.8688C76.0423 92.2411 85.2065 84.8725 91.0938 75.081C96.9811 65.2896 99.2075 53.7141 97.3746 42.4252C95.5418 31.1363 89.7693 20.8705 81.0897 13.4641C72.4101 6.0578 61.3898 1.99412 50 2.00001Z" stroke="white" stroke-width="4" stroke-linecap="round" stroke-linejoin="round"/>
</svg>
